<svg width="131" height="52" viewBox="0 0 131 52" fill="none" xmlns="http://www.w3.org/2000/svg">
<path d="M9.912 13.968H4.488V21H1.2V4.2H4.488V11.04H9.912V4.2H13.2V21H9.912V13.968ZM16.0706 4.2H27.0866V7.128H19.3586V11.04H26.4866V13.968H19.3586V18.072H27.2066V21H16.0706V4.2ZM38.7173 14.16H41.6932V21H30.6533V4.2H33.9413V18.072H38.7173V14.16ZM53.1079 14.16H56.0839V21H45.0439V4.2H48.3319V18.072H53.1079V14.16ZM58.4265 12.6C58.4265 11.24 58.5545 10.016 58.8105 8.928C59.0665 7.84 59.4585 6.928 59.9865 6.192C60.5145 5.44 61.1705 4.864 61.9545 4.464C62.7545 4.064 63.6905 3.864 64.7625 3.864C65.9145 3.864 66.8905 4.08 67.6905 4.512C68.4905 4.944 69.1385 5.544 69.6345 6.312C70.1465 7.08 70.5145 8 70.7385 9.072C70.9785 10.144 71.0985 11.32 71.0985 12.6C71.0985 15.336 70.5705 17.48 69.5145 19.032C68.4745 20.568 66.8905 21.336 64.7625 21.336C63.6105 21.336 62.6265 21.12 61.8105 20.688C61.0105 20.256 60.3545 19.656 59.8425 18.888C59.3465 18.12 58.9865 17.2 58.7625 16.128C58.5385 15.056 58.4265 13.88 58.4265 12.6ZM61.8825 12.6C61.8825 13.416 61.9145 14.176 61.9785 14.88C62.0585 15.584 62.1945 16.2 62.3865 16.728C62.5945 17.24 62.8825 17.648 63.2505 17.952C63.6345 18.256 64.1385 18.408 64.7625 18.408C65.3225 18.408 65.7865 18.296 66.1545 18.072C66.5225 17.832 66.8185 17.472 67.0425 16.992C67.2665 16.512 67.4185 15.912 67.4985 15.192C67.5945 14.456 67.6425 13.592 67.6425 12.6C67.6425 11.816 67.6105 11.072 67.5465 10.368C67.4985 9.664 67.3705 9.048 67.1625 8.52C66.9705 7.992 66.6825 7.576 66.2985 7.272C65.9145 6.952 65.4025 6.792 64.7625 6.792C63.6425 6.792 62.8825 7.28 62.4825 8.256C62.0825 9.232 61.8825 10.68 61.8825 12.6ZM4.2 40.584L4.248 42.6H4.344L4.752 40.704L6.192 36.24H8.64L9.984 40.704L10.416 42.6H10.512L10.56 40.536L11.232 31.2H14.256L12.528 48H9.744L7.944 42.696L7.392 40.392H7.272L6.696 42.696L4.752 48H1.872L0.144 31.2H3.432L4.2 40.584ZM15.6866 45.072H19.9346V34.128H15.6866V31.2H27.4946V34.128H23.2226V45.072H27.4946V48H15.6866V45.072ZM34.9253 40.992H33.2213V48H29.9333V31.2H33.2213V38.064H34.9253L38.7653 31.2H42.5093L37.7812 39.312L43.1093 48H39.0533L34.9253 40.992ZM44.4679 45.072H48.7159V34.128H44.4679V31.2H56.2759V34.128H52.0039V45.072H56.2759V48H44.4679V45.072ZM67.8585 30.912L70.2105 31.968L61.6425 51.36L59.2905 50.256L67.8585 30.912ZM74.1851 47.52L72.8171 45.36L81.5531 40.2L72.8171 34.92L74.1851 32.76L85.3931 39.72V40.92L74.1851 47.52Z" transform="translate(19)" fill="#7289DA"/>
<path d="M0.864 13.92V12.72L12.072 5.76L13.44 7.92L4.704 13.2L13.44 18.36L12.072 20.52L0.864 13.92Z" fill="#7289DA"/>
</svg>
