<svg width="28" height="27" viewBox="0 0 28 27" fill="none" xmlns="http://www.w3.org/2000/svg">
<path d="M5.95562 4.43131L4.25316 6.20508L-1.07612e-06 1.76746L1.70238 -2.18539e-07L5.95562 4.43131Z" transform="translate(13.1022 17.4855)" fill="#AAC4DA"/>
<path d="M5.55858 4.13591L3.97521 5.7914L4.25581e-07 1.6555L1.58894 1.77363e-07L5.55858 4.13591Z" transform="translate(3.57336 7.14377)" fill="#AAC4DA"/>
<path d="M12.1801 10.4469L16.8652 15.4311L14.5259 17.9162H11.7161L2.51147e-07 5.46992V2.48502L2.33926 -2.77468e-07L7.03102 4.97711L5.61956 6.46952L10.7752 11.9464L12.1801 10.4469Z" transform="translate(0.624634 8.4201)" fill="#7289DA"/>
<path d="M-6.12798e-07 5.14112V8.67583L3.56266 12.4606L4.44627 11.5219L1.24958 8.12611V5.69102L2.96437 3.86946L6.77088 7.90747L6.24731 8.46103L4.34571 6.44094L3.46218 7.3796L13.3026 17.8331L14.1861 16.8944L12.2845 14.8744L12.8057 14.3182L16.6068 18.3618L14.8921 20.1835H12.5998L5.77165 12.9298L4.88804 13.8685L12.0822 21.5109H15.4096L20.2491 16.3698L14.6811 10.455L11.399 13.9376L7.12911 9.40154L10.4075 5.91491L4.83956 -3.14819e-07L-6.12798e-07 5.14112ZM14.6793 12.3307L18.4817 16.37L17.4903 17.4233L13.6888 13.3793L14.6793 12.3307ZM7.65465 6.96906L3.8479 2.9307L4.83932 1.87751L8.64171 5.91692L7.65465 6.96906Z" transform="translate(0 5.48907)" fill="black"/>
<path d="M0 0L3.88822 2.00389L5.83233 6.01166" transform="matrix(0.911702 0.410852 -0.381387 0.924416 17.0724 6.1579)" stroke="#7289DA" stroke-width="3"/>
<path d="M0 0L7.1284 3.67379L10.6926 11.0214" transform="matrix(0.911702 0.410852 -0.381387 0.924416 20.2516 1)" stroke="#5676E8" stroke-width="3"/>
<rect width="1.94473" height="2.00329" transform="matrix(0.90761 0.419814 -0.389948 0.920837 14.2926 10.3972)" fill="#7289DA"/>
</svg>
