<svg width="287" height="287" viewBox="0 0 287 287" fill="none" xmlns="http://www.w3.org/2000/svg">
<path d="M215.25 0H77.2692C65.0773 0 55.1923 9.88494 55.1923 22.0769V27.5962H22.0769C9.88494 27.5962 0 37.4811 0 49.6731V77.2692C0 89.4612 9.88494 99.3462 22.0769 99.3462H55.1923V137.981V209.731V231.808C55.1923 244.005 65.0717 253.885 77.2692 253.885H93.8269H110.385C110.385 266.077 120.27 275.962 132.462 275.962H198.692C210.884 275.962 220.769 266.077 220.769 253.885H237.327H253.885C266.077 253.885 275.962 244 275.962 231.808V60.7115V55.1923L220.769 0H215.25ZM187.654 49.6731C187.654 37.4811 177.769 27.5962 165.577 27.5962C177.774 27.5962 187.654 37.4756 187.654 49.6731ZM187.654 77.2692C187.654 89.4667 177.774 99.3462 165.577 99.3462C177.769 99.3462 187.654 89.4612 187.654 77.2692Z" transform="translate(5.51929 5.51923)" fill="#BBC5E8"/>
<path d="M5.51923 0H0V38.6346C0 50.8266 9.88494 60.7115 22.0769 60.7115H60.7115V55.1923L5.51923 0Z" transform="translate(220.769 5.51923)" fill="#667BC4"/>
<path d="M187.654 22.0769V49.6731C187.654 61.8651 177.769 71.75 165.577 71.75H22.0769C9.88494 71.75 0 61.8651 0 49.6731V22.0769C0 9.88494 9.88494 0 22.0769 0H165.577C177.769 0 187.654 9.88494 187.654 22.0769Z" transform="translate(5.51929 33.1154)" fill="#FFFEFE"/>
<path d="M88.3077 99.3462H22.0769C9.88494 99.3462 0 89.4612 0 77.2692V22.0769C0 9.88494 9.88494 0 22.0769 0H88.3077C100.5 0 110.385 9.88494 110.385 22.0769V77.2692C110.385 89.4612 100.5 99.3462 88.3077 99.3462Z" transform="translate(115.904 182.135)" fill="#7289DA"/>
<path d="M16.5577 44.1538H0V27.5962L27.5962 0L44.1538 16.5577L16.5577 44.1538Z" transform="translate(154.538 209.731)" fill="white"/>
<path d="M30.2123 18.4949C30.2123 5.28743 22.397 2.23174e-06 11.0274 2.23174e-06H-2.73705e-07V37.3376H11.6069C22.397 37.3376 30.2123 31.7025 30.2123 18.4949ZM9.87943 29.4065V7.92562H10.4534C15.8567 7.92562 20.1066 9.758 20.1066 18.4894C20.1066 27.2208 15.8567 29.4065 10.4534 29.4065H9.87943Z" transform="translate(42.9231 50.3685)" fill="#7289DA"/>
<path d="M17.3469 38.7174C27.6845 38.7174 34.6939 31.4707 34.6939 19.1848C34.6939 6.94871 27.6845 2.23174e-06 17.3469 2.23174e-06C7.00942 2.23174e-06 -1.64223e-06 6.89352 -1.64223e-06 19.1848C-1.64223e-06 31.4762 7.00942 38.7174 17.3469 38.7174ZM17.3469 8.49962C21.8286 8.49962 24.5882 12.4072 24.5882 19.1848C24.5882 25.968 21.8286 30.2123 17.3469 30.2123C12.8653 30.2123 10.1112 25.9625 10.1112 19.1848C10.1112 12.4072 12.8708 8.49962 17.3469 8.49962Z" transform="translate(78.1633 49.6786)" fill="#7289DA"/>
<path d="M18.0313 38.7229C22.6289 38.7229 26.9338 36.8795 30.0908 33.2037L24.693 27.2319C23.0814 28.9594 21.0172 30.2178 18.1472 30.2178C13.3179 30.2178 10.1057 26.3157 10.1057 19.3063C10.1057 12.5231 13.8974 8.50514 18.379 8.50514C20.7909 8.50514 22.4026 9.42132 24.2405 11.0329L29.6383 4.94523C26.9946 2.30152 22.9766 0 18.2631 0C8.61553 0 6.12854e-06 7.11981 6.12854e-06 19.6485C-0.0055131 32.3979 8.26781 38.7229 18.0313 38.7229Z" transform="translate(117.891 49.6731)" fill="#7289DA"/>
<path d="M11.0385 0H0V11.0385H11.0385V0Z" transform="translate(22.0769 77.2692)" fill="#7289DA"/>
<path d="M230.191 1.61713C229.158 0.579519 227.751 0 226.288 0H220.769H82.7885C67.5719 0 55.1923 12.3796 55.1923 27.5962H27.5962C12.3796 27.5962 0 39.9758 0 55.1923V82.7885C0 98.005 12.3796 110.385 27.5962 110.385H55.1923V237.327C55.1923 252.543 67.5719 264.923 82.7885 264.923H99.3462C102.393 264.923 104.865 262.456 104.865 259.404C104.865 256.352 102.393 253.885 99.3462 253.885H82.7885C73.6597 253.885 66.2308 246.456 66.2308 237.327V110.385H171.096C186.313 110.385 198.692 98.005 198.692 82.7885V55.1923C198.692 39.9758 186.313 27.5962 171.096 27.5962H66.2308C66.2308 18.4673 73.6597 11.0385 82.7885 11.0385H215.25V44.1538C215.25 59.3704 227.63 71.75 242.846 71.75H275.962V237.327C275.962 246.456 268.533 253.885 259.404 253.885H242.846C239.8 253.885 237.327 256.352 237.327 259.404C237.327 262.456 239.8 264.923 242.846 264.923H259.404C274.62 264.923 287 252.543 287 237.327V66.2308V60.7115C287 59.2434 286.42 57.8415 285.383 56.8094L230.191 1.61713ZM171.096 38.6346C180.225 38.6346 187.654 46.0635 187.654 55.1923V82.7885C187.654 91.9173 180.225 99.3461 171.096 99.3461H27.5962C18.4673 99.3461 11.0385 91.9173 11.0385 82.7885V55.1923C11.0385 46.0635 18.4673 38.6346 27.5962 38.6346H171.096ZM242.846 60.7115C233.717 60.7115 226.288 53.2826 226.288 44.1538V13.3234L273.677 60.7115H242.846Z" fill="black"/>
<path d="M93.8269 110.385C109.043 110.385 121.423 98.005 121.423 82.7885V27.5962C121.423 12.3796 109.043 0 93.8269 0H27.5962C12.3796 0 0 12.3796 0 27.5962V82.7885C0 98.005 12.3796 110.385 27.5962 110.385H93.8269ZM11.0385 82.7885V27.5962C11.0385 18.4673 18.4673 11.0385 27.5962 11.0385H93.8269C102.956 11.0385 110.385 18.4673 110.385 27.5962V82.7885C110.385 91.9173 102.956 99.3462 93.8269 99.3462H27.5962C18.4673 99.3462 11.0385 91.9173 11.0385 82.7885Z" transform="translate(110.385 176.615)" fill="black"/>
<path d="M57.4773 24.3619L33.1154 -8.08481e-06L0 33.1154V57.4773H24.3619L57.4773 24.3619ZM11.0385 46.4388V37.6853L33.1154 15.6084L41.8689 24.3619L19.792 46.4388H11.0385Z" transform="translate(149.019 201.927)" fill="black"/>
</svg>
